<svg width="256" height="256" viewBox="0 0 256 256" fill="none" xmlns="http://www.w3.org/2000/svg">
<g clip-path="url(#clip0_1423_31717)">
<rect width="256" height="256" fill="#EEEEEE"/>
<path d="M200 72H56V216H200V72Z" fill="#136C7E"/>
<rect width="144" height="80" transform="translate(56 30)" fill="#ED332B"/>
<path d="M80 82.4148L82.4598 77.0103C85.4977 79.0902 89.0971 80.2183 92.7909 80.2482C97.071 80.2482 98.8174 78.8362 98.8174 76.9373C98.8174 71.1432 80.6395 75.1114 80.6395 63.6206C80.6395 58.3622 84.9196 54.0044 93.7994 54.0044C97.5978 53.9269 101.346 54.8692 104.647 56.7311L102.433 62.1843C99.804 60.635 96.8099 59.7955 93.7502 59.7498C89.4702 59.7498 87.8221 61.3322 87.8221 63.2798C87.8221 68.9765 106 65.057 106 76.4017C106 81.5628 101.671 85.9935 92.7417 85.9935C88.2268 86.1016 83.7846 84.8539 80 82.4148V82.4148Z" fill="white"/>
<path d="M143 54L129.527 86H122.424L109 54H116.79L126.245 76.8535L135.847 54H143Z" fill="white"/>
<path d="M168.878 69.5202H175.439V82.0559C171.781 84.657 167.393 86.0372 162.902 85.9992C153.146 85.9992 146 79.3297 146 70.007C146 60.6843 153.171 54.0147 163.073 54.0147C165.493 53.9125 167.906 54.3437 170.141 55.2776C172.375 56.2116 174.375 57.6254 176 59.4185L171.415 63.6782C170.407 62.5538 169.169 61.6588 167.785 61.054C166.4 60.4492 164.901 60.1488 163.39 60.1731C162.047 60.1066 160.704 60.3132 159.443 60.7804C158.182 61.2477 157.03 61.9658 156.055 62.8911C155.081 63.8165 154.305 64.9298 153.775 66.1635C153.245 67.3972 152.972 68.7255 152.972 70.0678C152.972 71.4102 153.245 72.7385 153.775 73.9722C154.305 75.2059 155.081 76.3192 156.055 77.2446C157.03 78.1699 158.182 78.888 159.443 79.3552C160.704 79.8225 162.047 80.0291 163.39 79.9626C165.326 80.0064 167.241 79.5539 168.951 78.6482L168.878 69.5202Z" fill="white"/>
<path d="M186.86 96H175.323V107.537H179.048C178.713 117.076 174.775 126.134 168.029 132.886C159.958 140.465 148.448 143.233 133.755 141.474V137.102H122.219V137.749L104.966 127.557C105.238 126.683 105.228 125.745 104.935 124.877C104.643 124.009 104.084 123.255 103.338 122.724C102.591 122.193 101.697 121.911 100.781 121.919C99.8649 121.926 98.9748 122.223 98.2377 122.767C97.5006 123.31 96.954 124.073 96.6762 124.946C96.3983 125.818 96.4033 126.757 96.6905 127.626C96.9776 128.496 97.5322 129.253 98.2751 129.789C99.018 130.324 99.9111 130.612 100.827 130.61C101.413 130.609 101.992 130.49 102.53 130.259C103.068 130.027 103.554 129.689 103.957 129.265L120.512 139.042C108.277 137.051 98.0851 139.172 90.144 145.431C77.7798 155.209 74.3136 172.307 73.3307 181.205H69.1403V192.742H80.6768V181.231H77.34C78.3488 172.798 81.6598 157.201 92.6273 148.561C100.103 142.638 110.087 140.956 122.219 143.388V148.561H133.678V146.828L157.708 161.029C157.572 161.447 157.503 161.883 157.501 162.322C157.501 163.188 157.758 164.034 158.24 164.754C158.721 165.473 159.405 166.033 160.206 166.363C161.006 166.694 161.886 166.779 162.735 166.608C163.584 166.437 164.362 166.018 164.973 165.404C165.583 164.79 165.997 164.009 166.163 163.159C166.329 162.309 166.239 161.43 165.904 160.631C165.569 159.833 165.005 159.152 164.282 158.675C163.56 158.198 162.712 157.946 161.847 157.951C161.258 157.947 160.675 158.067 160.136 158.303C159.596 158.539 159.113 158.886 158.717 159.322L135.437 145.561C153.543 147.242 164.511 141.474 170.641 135.731C178.166 128.211 182.557 118.116 182.928 107.485H186.782L186.86 96ZM78.6851 190.75H71.1061V183.197H78.6851V190.75ZM124.211 146.647V139.068H131.789V146.647H124.211ZM184.868 105.571H177.289V97.9918H184.868V105.571Z" fill="white"/>
<g clip-path="url(#clip1_1423_31717)">
<path d="M265.435 304.792C287.332 296.153 301.538 280.163 297.165 269.077C292.791 257.991 271.494 256.007 249.597 264.646C227.7 273.284 213.494 289.274 217.868 300.36C222.241 311.446 243.538 313.43 265.435 304.792Z" fill="#1ABDCA"/>
<path d="M289.084 256.35C289.067 256.307 289.053 256.258 289.037 256.215C284.953 245.865 265.071 244.01 244.631 252.074C224.191 260.138 210.93 275.068 215.013 285.418C215.03 285.461 215.053 285.506 215.07 285.549C215.087 285.592 215.101 285.641 215.118 285.684C215.135 285.727 215.158 285.773 215.175 285.815C215.192 285.858 215.206 285.908 215.223 285.95C215.24 285.993 215.263 286.039 215.28 286.081C215.297 286.124 215.311 286.174 215.328 286.216C215.345 286.259 215.368 286.305 215.385 286.348C215.402 286.39 215.416 286.44 215.433 286.483C215.45 286.525 215.473 286.571 215.49 286.614C215.507 286.656 215.521 286.706 215.538 286.749C215.555 286.791 215.578 286.837 215.595 286.88C215.612 286.923 215.626 286.972 215.643 287.015C215.66 287.058 215.683 287.103 215.7 287.146C215.717 287.189 215.731 287.238 215.748 287.281C215.765 287.324 215.788 287.369 215.805 287.412C215.822 287.455 215.836 287.504 215.853 287.547C215.87 287.59 215.893 287.635 215.91 287.678C215.927 287.721 215.941 287.77 215.958 287.813C215.975 287.856 215.998 287.902 216.015 287.944C216.032 287.987 216.046 288.036 216.063 288.079C216.079 288.122 216.103 288.168 216.12 288.21C216.137 288.253 216.151 288.303 216.168 288.345C216.184 288.388 216.208 288.434 216.225 288.477C216.242 288.519 216.256 288.569 216.273 288.611C216.289 288.654 216.313 288.7 216.33 288.743C216.347 288.785 216.361 288.835 216.378 288.878C216.394 288.92 216.418 288.966 216.435 289.009C216.452 289.052 216.466 289.101 216.483 289.144C216.499 289.186 216.523 289.232 216.54 289.275C216.557 289.318 216.571 289.367 216.588 289.41C216.604 289.453 216.628 289.498 216.645 289.541C216.662 289.584 216.676 289.633 216.693 289.676C216.709 289.719 216.733 289.764 216.75 289.807C216.767 289.85 216.781 289.899 216.798 289.942C216.814 289.985 216.838 290.03 216.855 290.073C216.872 290.116 216.886 290.165 216.903 290.208C216.919 290.251 216.943 290.297 216.96 290.339C216.977 290.382 216.991 290.432 217.008 290.474C217.024 290.517 217.048 290.563 217.065 290.606C217.082 290.648 217.096 290.698 217.112 290.74C217.129 290.783 217.153 290.829 217.17 290.872C217.187 290.914 217.201 290.964 217.217 291.007C217.234 291.049 217.258 291.095 217.275 291.138C217.292 291.181 217.306 291.23 217.322 291.273C217.339 291.315 217.363 291.361 217.38 291.404C217.397 291.447 217.411 291.496 217.427 291.539C217.444 291.582 217.468 291.627 217.485 291.67C217.502 291.713 217.516 291.762 217.532 291.805C217.549 291.848 217.573 291.893 217.59 291.936C217.606 291.979 217.621 292.028 217.637 292.071C217.654 292.114 217.678 292.159 217.695 292.202C217.711 292.245 217.726 292.294 217.742 292.337C217.759 292.38 217.783 292.426 217.8 292.468C217.816 292.511 217.831 292.56 217.847 292.603C217.864 292.646 217.888 292.692 217.905 292.734C217.921 292.777 217.936 292.827 217.952 292.869C217.969 292.912 217.993 292.958 218.01 293.001C218.026 293.043 218.04 293.093 218.057 293.135C218.074 293.178 218.098 293.224 218.115 293.267C218.131 293.309 218.145 293.359 218.162 293.402C218.179 293.444 218.203 293.49 218.22 293.533C218.236 293.576 218.25 293.625 218.267 293.668C218.284 293.711 218.308 293.756 218.325 293.799C218.341 293.842 218.355 293.891 218.372 293.934C218.389 293.977 218.413 294.022 218.43 294.065C218.446 294.108 218.46 294.157 218.477 294.2C218.494 294.243 218.518 294.288 218.535 294.331C218.551 294.374 218.565 294.423 218.582 294.466C218.599 294.509 218.623 294.555 218.639 294.597C218.656 294.64 218.67 294.689 218.687 294.732C218.704 294.775 218.728 294.821 218.744 294.863C218.761 294.906 218.775 294.956 218.792 294.998C218.809 295.041 218.833 295.087 218.849 295.13C218.866 295.172 218.88 295.222 218.897 295.264C218.914 295.307 218.938 295.353 218.954 295.396C218.971 295.438 218.985 295.488 219.002 295.531C219.019 295.573 219.043 295.619 219.059 295.662C219.076 295.705 219.09 295.754 219.107 295.797C219.124 295.839 219.148 295.885 219.164 295.928C219.181 295.971 219.195 296.02 219.212 296.063C219.229 296.106 219.253 296.151 219.269 296.194C219.286 296.237 219.3 296.286 219.317 296.329C223.4 306.679 243.283 308.533 263.723 300.47C284.163 292.406 297.424 277.476 293.341 267.126C293.324 267.083 293.301 267.037 293.284 266.995C293.267 266.952 293.253 266.902 293.236 266.86C293.219 266.817 293.196 266.771 293.179 266.728C293.162 266.686 293.148 266.636 293.131 266.594C293.114 266.551 293.091 266.505 293.074 266.462C293.057 266.42 293.043 266.37 293.026 266.327C293.009 266.285 292.986 266.239 292.969 266.196C292.952 266.153 292.938 266.104 292.921 266.061C292.904 266.019 292.881 265.973 292.864 265.93C292.847 265.887 292.833 265.838 292.816 265.795C292.799 265.752 292.776 265.707 292.759 265.664C292.742 265.621 292.728 265.572 292.711 265.529C292.694 265.486 292.671 265.441 292.654 265.398C292.637 265.355 292.623 265.306 292.606 265.263C292.589 265.22 292.566 265.174 292.549 265.132C292.532 265.089 292.518 265.04 292.501 264.997C292.484 264.954 292.461 264.908 292.444 264.866C292.427 264.823 292.413 264.773 292.396 264.731C292.379 264.688 292.356 264.642 292.339 264.599C292.322 264.557 292.308 264.507 292.291 264.465C292.274 264.422 292.251 264.376 292.234 264.333C292.217 264.291 292.203 264.241 292.186 264.198C292.169 264.156 292.146 264.11 292.129 264.067C292.112 264.024 292.098 263.975 292.081 263.932C292.064 263.89 292.041 263.844 292.024 263.801C292.007 263.758 291.993 263.709 291.976 263.666C291.959 263.623 291.936 263.578 291.919 263.535C291.902 263.492 291.888 263.443 291.871 263.4C291.854 263.357 291.831 263.312 291.814 263.269C291.797 263.226 291.783 263.177 291.766 263.134C291.749 263.091 291.726 263.046 291.709 263.003C291.692 262.96 291.678 262.911 291.661 262.868C291.644 262.825 291.621 262.779 291.604 262.737C291.587 262.694 291.573 262.645 291.556 262.602C291.539 262.559 291.516 262.513 291.499 262.471C291.482 262.428 291.468 262.378 291.451 262.336C291.434 262.293 291.411 262.247 291.394 262.204C291.377 262.162 291.363 262.112 291.346 262.069C291.329 262.027 291.306 261.981 291.289 261.938C291.272 261.896 291.258 261.846 291.241 261.803C291.224 261.761 291.201 261.715 291.184 261.672C291.167 261.629 291.153 261.58 291.136 261.537C291.119 261.494 291.096 261.449 291.079 261.406C291.062 261.363 291.048 261.314 291.031 261.271C291.014 261.228 290.991 261.183 290.974 261.14C290.957 261.097 290.943 261.048 290.926 261.005C290.909 260.962 290.886 260.917 290.869 260.874C290.852 260.831 290.838 260.782 290.821 260.739C290.804 260.696 290.781 260.65 290.764 260.608C290.747 260.565 290.733 260.516 290.716 260.473C290.699 260.43 290.676 260.384 290.659 260.342C290.642 260.299 290.628 260.249 290.611 260.207C290.594 260.164 290.571 260.118 290.554 260.075C290.537 260.033 290.523 259.983 290.506 259.941C290.489 259.898 290.466 259.852 290.449 259.809C290.432 259.767 290.418 259.717 290.401 259.674C290.385 259.632 290.361 259.586 290.344 259.543C290.327 259.5 290.313 259.451 290.296 259.408C290.28 259.366 290.256 259.32 290.239 259.277C290.222 259.234 290.208 259.185 290.191 259.142C290.175 259.099 290.151 259.054 290.134 259.011C290.117 258.968 290.103 258.919 290.086 258.876C290.07 258.833 290.046 258.788 290.029 258.745C290.012 258.702 289.998 258.653 289.981 258.61C289.965 258.567 289.941 258.522 289.924 258.479C289.907 258.436 289.893 258.387 289.876 258.344C289.86 258.301 289.836 258.255 289.819 258.213C289.802 258.17 289.788 258.12 289.771 258.078C289.755 258.035 289.731 257.989 289.714 257.947C289.697 257.904 289.683 257.854 289.666 257.812C289.65 257.769 289.626 257.723 289.609 257.68C289.592 257.638 289.578 257.588 289.561 257.545C289.545 257.503 289.521 257.457 289.504 257.414C289.487 257.371 289.473 257.322 289.457 257.279C289.44 257.237 289.416 257.191 289.399 257.148C289.382 257.105 289.368 257.056 289.352 257.013C289.335 256.97 289.311 256.925 289.294 256.882C289.277 256.839 289.263 256.79 289.247 256.747C289.23 256.704 289.206 256.659 289.189 256.616C289.172 256.573 289.158 256.524 289.142 256.481C289.125 256.438 289.108 256.395 289.084 256.35Z" fill="#C22828"/>
<path d="M259.425 289.556C279.866 281.492 293.126 266.564 289.043 256.212C284.959 245.861 265.078 244.007 244.637 252.072C224.196 260.136 210.935 275.065 215.019 285.416C219.102 295.767 238.984 297.621 259.425 289.556Z" fill="#ED332B"/>
<path d="M244.637 252.072C224.197 260.136 210.936 275.066 215.019 285.416C215.917 287.692 217.581 289.556 219.844 290.997L284.247 250.652C276.225 245.53 260.602 245.773 244.637 252.072Z" fill="#D7292A"/>
<path d="M256.49 252.864C254.61 246.433 232.489 255.056 236.747 261.361C237.09 262.285 237.454 263.207 237.837 264.122C238.992 267.147 240.23 270.146 241.385 273.172C243.662 279.232 264.882 270.97 261.16 264.662C260.745 263.706 260.413 262.711 259.992 261.757C258.846 258.782 257.676 255.817 256.49 252.864Z" fill="#D9D9D9"/>
<path d="M258.989 259.138C258.968 259.086 258.943 259.036 258.919 258.99C258.903 258.936 258.889 258.887 258.869 258.834C258.848 258.782 258.823 258.732 258.799 258.686C258.783 258.632 258.769 258.582 258.749 258.53C258.728 258.478 258.703 258.428 258.679 258.382C258.663 258.328 258.649 258.278 258.629 258.226C258.608 258.174 258.583 258.123 258.559 258.078C258.543 258.024 258.529 257.974 258.509 257.922C258.488 257.87 258.463 257.819 258.439 257.774C258.423 257.719 258.409 257.67 258.389 257.618C258.368 257.566 258.343 257.515 258.319 257.469C258.303 257.415 258.289 257.366 258.269 257.314C258.248 257.261 258.223 257.211 258.199 257.165C258.183 257.111 258.169 257.062 258.149 257.01C258.128 256.957 258.103 256.907 258.079 256.861C258.063 256.807 258.049 256.758 258.029 256.705C258.008 256.653 257.983 256.603 257.959 256.557C257.943 256.503 257.929 256.454 257.909 256.401C257.888 256.349 257.863 256.299 257.839 256.253C257.824 256.199 257.809 256.149 257.789 256.097C257.768 256.045 257.743 255.994 257.719 255.949C257.704 255.895 257.689 255.845 257.669 255.793C257.648 255.741 257.623 255.69 257.599 255.645C257.584 255.591 257.569 255.541 257.549 255.489C257.528 255.437 257.503 255.386 257.479 255.34C257.464 255.286 257.45 255.237 257.429 255.185C257.408 255.132 257.383 255.082 257.359 255.036C257.344 254.982 257.33 254.933 257.309 254.881C257.288 254.828 257.263 254.778 257.24 254.732C257.224 254.678 257.21 254.629 257.189 254.576C257.168 254.524 257.143 254.474 257.12 254.428C257.104 254.374 257.09 254.325 257.069 254.272C257.048 254.22 257.023 254.17 257 254.124C256.984 254.07 256.97 254.02 256.949 253.968C256.928 253.916 256.903 253.865 256.88 253.82C256.864 253.766 256.85 253.716 256.829 253.664C256.808 253.612 256.783 253.561 256.76 253.516C256.744 253.462 256.73 253.412 256.709 253.36C256.688 253.308 256.663 253.257 256.64 253.212C256.624 253.157 256.61 253.108 256.589 253.056C256.568 253.004 256.543 252.953 256.52 252.907C256.504 252.853 256.49 252.804 256.469 252.752C255.472 250.224 250.185 249.942 244.657 252.123C239.13 254.303 235.459 258.119 236.457 260.647C236.477 260.699 236.503 260.749 236.526 260.795C236.542 260.849 236.556 260.899 236.577 260.951C236.597 261.003 236.623 261.054 236.646 261.099C236.662 261.153 236.676 261.203 236.697 261.255C236.717 261.307 236.743 261.358 236.766 261.403C236.782 261.457 236.796 261.507 236.817 261.559C236.837 261.611 236.863 261.662 236.886 261.707C236.902 261.762 236.916 261.811 236.937 261.863C236.957 261.916 236.983 261.966 237.006 262.012C237.022 262.066 237.036 262.115 237.057 262.167C237.077 262.22 237.103 262.27 237.126 262.316C237.142 262.37 237.156 262.419 237.177 262.472C237.197 262.524 237.223 262.574 237.246 262.62C237.262 262.674 237.276 262.723 237.297 262.776C237.317 262.828 237.343 262.878 237.366 262.924C237.382 262.978 237.396 263.028 237.417 263.08C237.437 263.132 237.463 263.182 237.486 263.228C237.502 263.282 237.516 263.332 237.537 263.384C237.557 263.436 237.583 263.487 237.606 263.532C237.622 263.586 237.636 263.636 237.657 263.688C237.677 263.74 237.703 263.791 237.726 263.836C237.742 263.891 237.756 263.94 237.777 263.992C237.797 264.044 237.823 264.095 237.846 264.141C237.862 264.195 237.876 264.244 237.897 264.296C237.917 264.349 237.942 264.399 237.966 264.445C237.982 264.499 237.996 264.548 238.017 264.6C238.037 264.653 238.062 264.703 238.086 264.749C238.102 264.803 238.116 264.852 238.137 264.905C238.157 264.957 238.182 265.007 238.206 265.053C238.222 265.107 238.236 265.156 238.256 265.209C238.277 265.261 238.302 265.311 238.326 265.357C238.342 265.411 238.356 265.461 238.376 265.513C238.397 265.565 238.422 265.616 238.446 265.661C238.462 265.715 238.476 265.765 238.496 265.817C238.517 265.869 238.542 265.92 238.566 265.965C238.582 266.019 238.596 266.069 238.616 266.121C238.637 266.173 238.662 266.224 238.686 266.27C238.702 266.324 238.716 266.373 238.736 266.425C238.757 266.478 238.782 266.528 238.806 266.574C238.822 266.628 238.836 266.677 238.856 266.729C238.877 266.782 238.902 266.832 238.926 266.878C238.942 266.932 238.956 266.981 238.976 267.034C238.997 267.086 239.022 267.136 239.046 267.182C239.062 267.236 239.076 267.285 239.096 267.338C239.117 267.39 239.142 267.44 239.166 267.486C239.182 267.54 239.196 267.59 239.216 267.642C239.237 267.694 239.262 267.745 239.286 267.79C239.302 267.844 239.316 267.894 239.336 267.946C239.357 267.998 239.382 268.049 239.406 268.094C239.422 268.148 239.436 268.198 239.456 268.25C239.477 268.302 239.502 268.353 239.526 268.398C239.542 268.453 239.556 268.502 239.576 268.554C239.597 268.606 239.622 268.657 239.646 268.703C239.662 268.757 239.676 268.806 239.696 268.858C239.717 268.911 239.742 268.961 239.766 269.007C239.782 269.061 239.796 269.11 239.816 269.162C239.837 269.215 239.862 269.265 239.886 269.311C239.902 269.365 239.916 269.414 239.936 269.467C239.957 269.519 239.982 269.569 240.006 269.615C240.022 269.669 240.036 269.718 240.056 269.771C240.077 269.823 240.102 269.873 240.126 269.919C240.142 269.973 240.156 270.023 240.176 270.075C240.197 270.127 240.222 270.178 240.246 270.223C240.262 270.277 240.276 270.327 240.296 270.379C240.317 270.431 240.342 270.482 240.366 270.527C240.382 270.582 240.396 270.631 240.416 270.683C240.437 270.735 240.462 270.786 240.486 270.832C240.502 270.886 240.516 270.935 240.536 270.987C240.557 271.04 240.582 271.09 240.606 271.136C240.622 271.19 240.636 271.239 240.656 271.291C240.677 271.344 240.702 271.394 240.726 271.44C240.742 271.494 240.756 271.543 240.776 271.596C240.797 271.648 240.822 271.698 240.846 271.744C240.861 271.798 240.876 271.847 240.896 271.9C240.917 271.952 240.942 272.002 240.966 272.048C240.981 272.102 240.996 272.152 241.016 272.204C241.037 272.256 241.062 272.307 241.086 272.352C241.101 272.406 241.116 272.456 241.136 272.508C241.157 272.56 241.182 272.611 241.206 272.656C241.221 272.71 241.235 272.76 241.256 272.812C241.277 272.864 241.302 272.915 241.326 272.96C241.341 273.015 241.355 273.064 241.376 273.116C241.819 274.238 243.107 274.916 244.887 275.131C244.875 275.102 244.166 273.18 245.207 270.38C246.254 267.556 249.389 263.222 259.095 259.393C259.074 259.341 259.049 259.291 259.025 259.245C259.025 259.245 259.009 259.191 258.989 259.138Z" fill="#D9D9D9"/>
<path d="M220.125 146.31L220.492 147.241C220.8 148.02 221.638 148.453 222.442 148.246L243.386 142.877C244.328 142.637 244.849 141.63 244.517 140.706L243.568 138.093C243.258 137.238 242.325 136.788 241.475 137.085L221.111 144.141C220.224 144.442 219.778 145.43 220.125 146.31Z" fill="#ED332B"/>
<path d="M203.225 153.56L176.542 161.577C175.645 161.849 175.157 162.816 175.471 163.708L176.867 167.715C177.178 168.614 178.167 169.069 179.04 168.72L204.895 158.399C205.701 158.075 206.118 157.175 205.842 156.339L205.28 154.639C204.99 153.781 204.079 153.3 203.225 153.56Z" fill="#ED332B"/>
<path d="M296.771 243.009L211.5 276.649C204.737 279.317 197.065 275.936 194.367 269.097L164.843 194.261C162.145 187.423 165.442 179.713 172.205 177.045L257.476 143.405C264.239 140.736 271.912 144.118 274.61 150.957L304.134 225.793C306.831 232.631 303.534 240.341 296.771 243.009Z" fill="#92D5E3"/>
<path d="M252.63 151.484C254.197 150.251 256.188 149.542 258.242 149.352C260.306 149.159 262.441 149.492 264.402 150.305C264.881 150.528 265.359 150.762 265.833 150.998C266.287 151.269 266.733 151.56 267.172 151.859C267.579 152.204 268.005 152.525 268.383 152.892C268.748 153.281 269.116 153.663 269.441 154.073C270.726 155.746 271.584 157.758 271.59 159.837L271.209 159.987C270.83 159.631 270.498 159.285 270.186 158.935C269.848 158.602 269.511 158.285 269.207 157.954C268.874 157.646 268.537 157.356 268.231 157.049C267.897 156.768 267.556 156.497 267.244 156.213C267.085 156.073 266.899 155.96 266.735 155.832L266.24 155.445L265.206 154.738C264.857 154.514 264.492 154.317 264.145 154.086C263.78 153.89 263.404 153.708 263.037 153.507C261.533 152.793 259.918 152.294 258.214 152.021C257.786 151.982 257.358 151.903 256.919 151.863L255.584 151.785C255.14 151.801 254.679 151.79 254.213 151.793C253.756 151.831 253.281 151.853 252.792 151.865L252.64 151.48L252.63 151.484Z" fill="white"/>
<path d="M206.834 277.557L179.626 281.739C176.811 282.174 174.063 280.578 173.006 277.898L146.802 211.478C145.996 209.434 146.328 207.123 147.673 205.412L166.658 181.227L206.834 277.557Z" fill="#116C7E"/>
<path d="M254.138 259.828L211.505 276.647C204.742 279.316 197.07 275.934 194.372 269.095L164.848 194.259C162.15 187.421 165.447 179.711 172.21 177.043L214.843 160.224L254.138 259.828Z" fill="#1ABDCA"/>
<path d="M176.632 234.846C180.771 245.338 179.873 255.523 174.624 257.594C169.369 259.667 161.76 252.839 157.62 242.346C153.479 231.848 154.377 221.664 159.631 219.591C164.881 217.52 172.49 224.348 176.632 234.846Z" fill="#1ABDCA"/>
<path d="M159.336 222.97C159.303 222.983 159.276 222.999 159.243 223.012C159.21 223.025 159.18 223.031 159.148 223.044C159.115 223.057 159.088 223.073 159.055 223.086C159.022 223.099 158.992 223.105 158.96 223.118C158.927 223.131 158.9 223.147 158.867 223.16C158.835 223.173 158.804 223.179 158.772 223.192C158.739 223.205 158.712 223.221 158.679 223.234C158.647 223.247 158.616 223.253 158.584 223.266C158.551 223.279 158.524 223.295 158.491 223.308C158.459 223.321 158.428 223.328 158.396 223.341C158.363 223.354 158.336 223.369 158.303 223.382C158.271 223.395 158.24 223.402 158.208 223.415C158.175 223.428 158.148 223.444 158.115 223.457C158.083 223.47 158.052 223.476 158.02 223.489C157.987 223.502 157.96 223.518 157.927 223.531C157.895 223.544 157.864 223.55 157.832 223.563C157.799 223.576 157.772 223.592 157.739 223.605C157.707 223.618 157.676 223.624 157.644 223.637C157.611 223.65 157.584 223.666 157.551 223.679C157.519 223.692 157.488 223.698 157.456 223.711C157.423 223.724 157.396 223.74 157.363 223.753C157.331 223.766 157.3 223.773 157.268 223.786C157.235 223.799 157.208 223.814 157.175 223.827C157.143 223.84 157.112 223.847 157.08 223.86C157.047 223.873 157.02 223.889 156.987 223.902C156.955 223.915 156.924 223.921 156.892 223.934C156.859 223.947 156.832 223.963 156.799 223.976C156.767 223.989 156.736 223.995 156.704 224.008C156.671 224.021 156.644 224.037 156.611 224.05C156.579 224.063 156.548 224.069 156.516 224.082C156.483 224.095 156.456 224.111 156.423 224.124C156.391 224.137 156.36 224.143 156.328 224.156C156.295 224.169 156.268 224.185 156.235 224.198C156.203 224.211 156.172 224.218 156.14 224.231C156.107 224.244 156.08 224.259 156.047 224.272C156.015 224.285 155.984 224.292 155.952 224.305C155.919 224.318 155.892 224.334 155.859 224.347C155.827 224.36 155.796 224.366 155.764 224.379C155.731 224.392 155.704 224.408 155.671 224.421C155.639 224.434 155.608 224.44 155.576 224.453C155.543 224.466 155.516 224.482 155.483 224.495C155.451 224.508 155.42 224.514 155.388 224.527C150.913 226.292 150.151 234.962 153.678 243.901C157.202 252.835 163.683 258.648 168.153 256.884C168.186 256.871 168.212 256.856 168.245 256.843C168.278 256.83 168.308 256.823 168.341 256.81C168.374 256.797 168.4 256.781 168.433 256.768C168.466 256.755 168.496 256.749 168.529 256.736C168.562 256.723 168.588 256.707 168.621 256.694C168.654 256.681 168.684 256.675 168.717 256.662C168.75 256.649 168.776 256.633 168.809 256.62C168.842 256.607 168.872 256.601 168.905 256.588C168.938 256.575 168.964 256.559 168.997 256.546C169.03 256.533 169.06 256.527 169.093 256.514C169.126 256.501 169.152 256.485 169.185 256.472C169.218 256.459 169.248 256.452 169.281 256.439C169.314 256.426 169.34 256.411 169.373 256.398C169.406 256.385 169.436 256.378 169.469 256.365C169.502 256.352 169.528 256.336 169.561 256.323C169.594 256.31 169.624 256.304 169.657 256.291C169.69 256.278 169.716 256.262 169.749 256.249C169.782 256.236 169.812 256.23 169.845 256.217C169.878 256.204 169.904 256.188 169.937 256.175C169.97 256.162 170 256.156 170.033 256.143C170.066 256.13 170.092 256.114 170.125 256.101C170.158 256.088 170.188 256.082 170.221 256.069C170.254 256.056 170.28 256.04 170.313 256.027C170.346 256.014 170.376 256.007 170.409 255.994C170.442 255.981 170.468 255.966 170.501 255.953C170.534 255.94 170.564 255.933 170.597 255.92C170.63 255.907 170.656 255.891 170.689 255.878C170.722 255.865 170.752 255.859 170.785 255.846C170.818 255.833 170.844 255.817 170.877 255.804C170.91 255.791 170.94 255.785 170.973 255.772C171.006 255.759 171.032 255.743 171.065 255.73C171.098 255.717 171.128 255.711 171.161 255.698C171.194 255.685 171.22 255.669 171.253 255.656C171.286 255.643 171.316 255.637 171.349 255.624C171.382 255.611 171.408 255.595 171.441 255.582C171.474 255.569 171.504 255.562 171.537 255.549C171.57 255.536 171.596 255.521 171.629 255.508C171.662 255.495 171.692 255.488 171.725 255.475C171.758 255.462 171.784 255.446 171.817 255.433C171.85 255.42 171.88 255.414 171.913 255.401C171.946 255.388 171.972 255.372 172.005 255.359C172.038 255.346 172.068 255.34 172.101 255.327C176.57 253.564 177.337 244.892 173.812 235.958C170.286 227.019 163.805 221.206 159.336 222.97Z" fill="#C22828"/>
<path d="M169.884 237.508C173.408 246.442 172.647 255.112 168.172 256.877C163.698 258.642 157.222 252.827 153.697 243.893C150.173 234.959 150.937 226.283 155.407 224.52C159.881 222.754 166.357 228.569 169.884 237.508Z" fill="#ED332B"/>
<path d="M163.992 239.832C164.952 242.265 164.741 244.622 163.524 245.102C162.307 245.582 160.542 243.999 159.584 241.571C158.624 239.138 158.833 236.776 160.05 236.296C161.267 235.816 163.032 237.399 163.992 239.832Z" fill="#C22828"/>
<path d="M163.979 239.837C164.939 242.27 164.728 244.627 163.511 245.107C162.294 245.587 160.529 244.005 159.571 241.576C158.611 239.143 158.82 236.782 160.037 236.301C161.254 235.821 163.019 237.404 163.979 239.837Z" fill="#C22828"/>
<path d="M163.965 239.843C164.925 242.276 164.714 244.632 163.496 245.113C162.279 245.593 160.514 244.01 159.556 241.582C158.596 239.149 158.805 236.787 160.023 236.307C161.24 235.827 163.005 237.41 163.965 239.843Z" fill="#C22828"/>
<path d="M163.951 239.848C164.911 242.281 164.7 244.638 163.483 245.118C162.266 245.598 160.501 244.015 159.543 241.587C158.583 239.154 158.792 236.793 160.009 236.312C161.227 235.832 162.992 237.415 163.951 239.848Z" fill="#C22828"/>
<path d="M163.937 239.854C164.897 242.287 164.686 244.643 163.469 245.124C162.251 245.604 160.486 244.021 159.528 241.593C158.569 239.16 158.778 236.798 159.995 236.318C161.212 235.838 162.977 237.421 163.937 239.854Z" fill="#C22828"/>
<path d="M163.923 239.859C164.882 242.292 164.672 244.649 163.454 245.129C162.237 245.61 160.472 244.027 159.514 241.598C158.554 239.165 158.763 236.804 159.98 236.324C161.198 235.843 162.963 237.426 163.923 239.859Z" fill="#C22828"/>
<path d="M163.908 239.865C164.868 242.298 164.657 244.655 163.44 245.135C162.223 245.615 160.458 244.032 159.5 241.604C158.54 239.171 158.749 236.81 159.966 236.329C161.183 235.849 162.948 237.432 163.908 239.865Z" fill="#C22828"/>
<path d="M163.899 239.869C164.859 242.302 164.648 244.658 163.43 245.139C162.213 245.619 160.448 244.036 159.49 241.608C158.53 239.175 158.739 236.813 159.956 236.333C161.174 235.853 162.939 237.436 163.899 239.869Z" fill="#C22828"/>
<path d="M163.879 239.876C164.839 242.309 164.628 244.666 163.411 245.146C162.194 245.627 160.429 244.044 159.471 241.616C158.511 239.183 158.72 236.821 159.937 236.341C161.154 235.861 162.919 237.443 163.879 239.876Z" fill="#C22828"/>
<path d="M163.871 239.88C164.831 242.313 164.62 244.67 163.402 245.15C162.185 245.63 160.42 244.047 159.462 241.619C158.502 239.186 158.711 236.824 159.929 236.344C161.146 235.864 162.911 237.447 163.871 239.88Z" fill="#C22828"/>
<path d="M163.853 239.887C164.812 242.32 164.602 244.677 163.384 245.157C162.167 245.637 160.402 244.054 159.444 241.626C158.484 239.193 158.693 236.832 159.91 236.351C161.132 235.869 162.893 237.454 163.853 239.887Z" fill="#C22828"/>
<path d="M163.839 239.892C164.798 242.325 164.588 244.682 163.37 245.162C162.153 245.643 160.388 244.06 159.43 241.632C158.47 239.199 158.679 236.837 159.896 236.357C161.118 235.875 162.879 237.459 163.839 239.892Z" fill="#C22828"/>
<path d="M163.825 239.898C164.785 242.331 164.574 244.688 163.356 245.168C162.139 245.648 160.374 244.065 159.416 241.637C158.456 239.204 158.665 236.843 159.883 236.362C161.104 235.88 162.865 237.465 163.825 239.898Z" fill="#C22828"/>
<path d="M163.809 239.904C164.769 242.337 164.558 244.694 163.341 245.174C162.124 245.654 160.359 244.071 159.401 241.643C158.441 239.21 158.65 236.849 159.867 236.368C161.089 235.886 162.849 237.471 163.809 239.904Z" fill="#C22828"/>
<path d="M163.795 239.909C164.755 242.343 164.544 244.699 163.327 245.179C162.11 245.66 160.345 244.077 159.387 241.649C158.427 239.216 158.636 236.854 159.853 236.374C161.075 235.892 162.835 237.476 163.795 239.909Z" fill="#C22828"/>
<path d="M163.781 239.915C164.741 242.348 164.53 244.705 163.313 245.185C162.096 245.665 160.331 244.082 159.373 241.654C158.413 239.221 158.622 236.86 159.839 236.379C161.061 235.897 162.822 237.482 163.781 239.915Z" fill="#C22828"/>
<path d="M163.767 239.92C164.727 242.354 164.516 244.71 163.299 245.191C162.082 245.671 160.317 244.088 159.359 241.66C158.399 239.227 158.608 236.865 159.825 236.385C161.043 235.905 162.808 237.487 163.767 239.92Z" fill="#C22828"/>
<path d="M163.753 239.926C164.713 242.359 164.502 244.716 163.285 245.196C162.068 245.676 160.303 244.093 159.345 241.665C158.385 239.232 158.594 236.871 159.811 236.39C161.029 235.91 162.794 237.493 163.753 239.926Z" fill="#C22828"/>
<path d="M163.74 239.932C164.699 242.365 164.489 244.721 163.271 245.202C162.054 245.682 160.289 244.099 159.331 241.671C158.371 239.238 158.58 236.876 159.797 236.396C161.015 235.916 162.78 237.498 163.74 239.932Z" fill="#C22828"/>
<path d="M163.726 239.937C164.685 242.37 164.475 244.727 163.257 245.207C162.04 245.687 160.275 244.105 159.317 241.676C158.357 239.243 158.566 236.882 159.783 236.401C161.001 235.921 162.766 237.504 163.726 239.937Z" fill="#C22828"/>
<path d="M163.712 239.942C164.671 242.376 164.461 244.732 163.243 245.213C162.026 245.693 160.261 244.11 159.303 241.682C158.343 239.249 158.552 236.887 159.769 236.407C160.987 235.927 162.752 237.509 163.712 239.942Z" fill="#C22828"/>
<path d="M163.695 239.949C164.655 242.382 164.444 244.739 163.227 245.219C162.009 245.699 160.244 244.117 159.286 241.688C158.326 239.255 158.535 236.894 159.753 236.414C160.97 235.933 162.735 237.516 163.695 239.949Z" fill="#C22828"/>
<path d="M163.681 239.955C164.641 242.388 164.43 244.744 163.213 245.225C161.995 245.705 160.23 244.122 159.272 241.694C158.312 239.261 158.521 236.899 159.739 236.419C160.956 235.939 162.721 237.522 163.681 239.955Z" fill="#C22828"/>
<path d="M163.667 239.96C164.627 242.393 164.416 244.75 163.199 245.23C161.981 245.71 160.216 244.128 159.258 241.699C158.299 239.266 158.507 236.905 159.725 236.425C160.942 235.944 162.707 237.527 163.667 239.96Z" fill="#C22828"/>
<path d="M163.653 239.966C164.613 242.399 164.402 244.755 163.185 245.236C161.967 245.716 160.202 244.133 159.244 241.705C158.285 239.272 158.494 236.91 159.711 236.43C160.928 235.95 162.693 237.533 163.653 239.966Z" fill="#C22828"/>
<path d="M163.639 239.971C164.599 242.404 164.388 244.761 163.171 245.241C161.953 245.721 160.188 244.139 159.23 241.71C158.271 239.277 158.48 236.916 159.697 236.436C160.914 235.955 162.679 237.538 163.639 239.971Z" fill="#C22828"/>
<path d="M163.625 239.977C164.585 242.41 164.374 244.766 163.157 245.247C161.94 245.727 160.175 244.144 159.217 241.716C158.257 239.283 158.466 236.921 159.683 236.441C160.9 235.961 162.665 237.544 163.625 239.977Z" fill="#C22828"/>
<path d="M163.611 239.982C164.571 242.415 164.36 244.772 163.143 245.252C161.926 245.732 160.161 244.15 159.203 241.721C158.243 239.288 158.452 236.927 159.669 236.447C160.886 235.966 162.651 237.549 163.611 239.982Z" fill="#C22828"/>
<path d="M163.593 239.989C164.553 242.422 164.342 244.779 163.125 245.259C161.907 245.74 160.142 244.157 159.184 241.729C158.225 239.295 158.434 236.934 159.651 236.454C160.873 235.972 162.633 237.556 163.593 239.989Z" fill="#C22828"/>
<path d="M163.573 239.997C164.533 242.43 164.322 244.787 163.105 245.267C161.887 245.748 160.122 244.165 159.164 241.737C158.204 239.303 158.413 236.942 159.631 236.462C160.853 235.98 162.613 237.564 163.573 239.997Z" fill="#C22828"/>
<path d="M163.559 240.003C164.519 242.436 164.308 244.792 163.091 245.273C161.874 245.753 160.109 244.17 159.151 241.742C158.191 239.309 158.4 236.947 159.617 236.467C160.839 235.985 162.599 237.57 163.559 240.003Z" fill="#C22828"/>
<path d="M163.544 240.009C164.504 242.442 164.293 244.798 163.076 245.279C161.859 245.759 160.094 244.176 159.136 241.748C158.176 239.315 158.385 236.953 159.602 236.473C160.824 235.991 162.584 237.576 163.544 240.009Z" fill="#C22828"/>
<path d="M163.531 240.014C164.491 242.447 164.28 244.804 163.062 245.284C161.845 245.764 160.08 244.181 159.122 241.753C158.162 239.32 158.371 236.959 159.589 236.478C160.811 235.996 162.571 237.581 163.531 240.014Z" fill="#C22828"/>
<path d="M163.52 240.018C164.48 242.451 164.269 244.808 163.052 245.288C161.835 245.768 160.07 244.185 159.112 241.757C158.152 239.324 158.361 236.963 159.578 236.482C160.796 236.002 162.561 237.585 163.52 240.018Z" fill="#C22828"/>
<path d="M163.506 240.023C164.466 242.457 164.255 244.813 163.038 245.293C161.821 245.774 160.056 244.191 159.098 241.763C158.138 239.33 158.347 236.968 159.564 236.488C160.782 236.008 162.547 237.59 163.506 240.023Z" fill="#C22828"/>
<path d="M163.49 240.03C164.45 242.463 164.239 244.82 163.022 245.3C161.804 245.78 160.039 244.198 159.081 241.769C158.122 239.336 158.331 236.975 159.548 236.494C160.765 236.014 162.53 237.597 163.49 240.03Z" fill="#C22828"/>
<path d="M163.476 240.035C164.436 242.468 164.225 244.825 163.008 245.305C161.791 245.786 160.026 244.203 159.068 241.775C158.108 239.342 158.317 236.98 159.534 236.5C160.752 236.02 162.517 237.602 163.476 240.035Z" fill="#C22828"/>
<path d="M163.461 240.041C164.421 242.474 164.21 244.831 162.993 245.311C161.776 245.791 160.011 244.209 159.053 241.78C158.093 239.347 158.302 236.986 159.519 236.506C160.737 236.025 162.502 237.608 163.461 240.041Z" fill="#C22828"/>
<path d="M163.449 240.046C164.409 242.479 164.198 244.836 162.981 245.316C161.764 245.796 159.999 244.214 159.041 241.785C158.081 239.352 158.29 236.991 159.507 236.51C160.724 236.03 162.489 237.613 163.449 240.046Z" fill="#C22828"/>
<path d="M163.426 240.055C164.386 242.488 164.175 244.845 162.958 245.325C161.741 245.805 159.976 244.223 159.018 241.794C158.058 239.361 158.267 237 159.484 236.519C160.702 236.039 162.467 237.622 163.426 240.055Z" fill="#C22828"/>
<path d="M163.417 240.059C164.376 242.492 164.166 244.849 162.948 245.329C161.731 245.809 159.966 244.226 159.008 241.798C158.048 239.365 158.257 237.004 159.474 236.523C160.692 236.043 162.457 237.626 163.417 240.059Z" fill="#C22828"/>
<path d="M163.407 240.063C164.367 242.496 164.156 244.852 162.939 245.333C161.721 245.813 159.956 244.23 158.998 241.802C158.038 239.369 158.247 237.007 159.465 236.527C160.682 236.047 162.447 237.63 163.407 240.063Z" fill="#C22828"/>
<path d="M158.878 236.759C158.845 236.772 158.818 236.788 158.787 236.805C158.753 236.814 158.723 236.82 158.69 236.833C158.657 236.846 158.63 236.862 158.599 236.879C158.565 236.888 158.535 236.894 158.502 236.907C158.469 236.92 158.442 236.936 158.411 236.954C158.377 236.962 158.347 236.968 158.314 236.981C158.281 236.994 158.254 237.01 158.223 237.028C158.189 237.036 158.159 237.042 158.126 237.055C158.093 237.068 158.066 237.084 158.035 237.102C158.001 237.11 157.971 237.117 157.938 237.13C157.905 237.143 157.878 237.158 157.847 237.176C157.813 237.184 157.783 237.191 157.75 237.204C157.717 237.217 157.69 237.233 157.659 237.25C157.625 237.259 157.595 237.265 157.562 237.278C157.529 237.291 157.502 237.307 157.471 237.324C157.437 237.333 157.407 237.339 157.374 237.352C157.341 237.365 157.314 237.381 157.283 237.399C157.249 237.407 157.219 237.413 157.186 237.426C157.153 237.439 157.126 237.455 157.095 237.473C157.061 237.481 157.031 237.487 156.998 237.5C156.965 237.513 156.938 237.529 156.907 237.547C156.873 237.555 156.843 237.562 156.81 237.575C156.777 237.588 156.75 237.603 156.719 237.621C156.685 237.629 156.655 237.636 156.622 237.649C156.589 237.662 156.562 237.678 156.531 237.695C156.497 237.704 156.467 237.71 156.434 237.723C156.401 237.736 156.374 237.752 156.343 237.769C156.309 237.778 156.279 237.784 156.246 237.797C156.213 237.81 156.187 237.826 156.155 237.844C156.121 237.852 156.091 237.858 156.058 237.871C156.025 237.884 155.999 237.9 155.967 237.918C155.933 237.926 155.903 237.932 155.87 237.945C155.837 237.958 155.811 237.974 155.779 237.992C155.745 238 155.715 238.007 155.682 238.02C155.649 238.033 155.623 238.048 155.591 238.066C155.557 238.074 155.527 238.081 155.494 238.094C155.461 238.107 155.435 238.123 155.403 238.14C155.369 238.149 155.339 238.155 155.306 238.168C155.273 238.181 155.247 238.197 155.215 238.214C155.181 238.223 155.151 238.229 155.118 238.242C155.085 238.255 155.059 238.271 155.027 238.289C154.993 238.297 154.963 238.303 154.93 238.316C154.897 238.329 154.871 238.345 154.839 238.363C154.805 238.371 154.775 238.377 154.742 238.39C154.709 238.403 154.683 238.419 154.652 238.437C154.617 238.445 154.587 238.452 154.554 238.465C154.521 238.478 154.495 238.493 154.464 238.511C154.429 238.519 154.399 238.526 154.366 238.539C154.333 238.552 154.307 238.568 154.276 238.585C154.241 238.594 154.211 238.6 154.178 238.613C154.145 238.626 154.119 238.642 154.088 238.659C154.053 238.668 154.023 238.674 153.99 238.687C153.957 238.7 153.931 238.716 153.9 238.734C153.865 238.742 153.835 238.748 153.802 238.761C153.769 238.774 153.743 238.79 153.712 238.808C153.677 238.816 153.647 238.822 153.614 238.835C153.581 238.848 153.555 238.864 153.524 238.882C153.489 238.89 153.459 238.897 153.426 238.91C153.393 238.923 153.367 238.938 153.336 238.956C153.301 238.964 153.271 238.971 153.238 238.984C153.205 238.997 153.179 239.013 153.148 239.03C153.113 239.039 153.083 239.045 153.05 239.058C153.017 239.071 152.991 239.087 152.96 239.104C152.925 239.113 152.895 239.119 152.862 239.132C152.829 239.145 152.803 239.161 152.772 239.179C152.737 239.187 152.707 239.193 152.674 239.206C152.641 239.219 152.615 239.235 152.584 239.253C152.549 239.261 152.519 239.267 152.486 239.28C152.453 239.293 152.427 239.309 152.396 239.327C152.361 239.335 152.331 239.342 152.298 239.355C152.265 239.368 152.239 239.383 152.208 239.401C152.173 239.409 152.143 239.416 152.11 239.429C152.077 239.442 152.051 239.458 152.02 239.475C151.985 239.484 151.955 239.49 151.922 239.503C151.889 239.516 151.863 239.532 151.832 239.549C151.797 239.558 151.767 239.564 151.734 239.577C151.701 239.59 151.675 239.606 151.644 239.624C151.609 239.632 151.579 239.638 151.546 239.651C151.513 239.664 151.487 239.68 151.456 239.698C151.421 239.706 151.391 239.712 151.358 239.725C151.325 239.738 151.299 239.754 151.268 239.772C151.233 239.78 151.203 239.787 151.17 239.8C149.953 240.28 149.744 242.641 150.703 245.074C151.663 247.507 153.426 249.085 154.644 248.605C154.677 248.592 154.703 248.576 154.734 248.559C154.769 248.55 154.799 248.544 154.832 248.531C154.865 248.518 154.891 248.502 154.922 248.484C154.957 248.476 154.987 248.47 155.02 248.457C155.053 248.444 155.079 248.428 155.11 248.41C155.145 248.402 155.175 248.396 155.208 248.383C155.241 248.37 155.267 248.354 155.298 248.336C155.333 248.328 155.363 248.321 155.396 248.308C155.429 248.296 155.455 248.28 155.486 248.262C155.521 248.254 155.551 248.247 155.584 248.234C155.617 248.221 155.643 248.205 155.674 248.188C155.709 248.18 155.739 248.173 155.772 248.16C155.805 248.147 155.831 248.131 155.862 248.114C155.897 248.105 155.927 248.099 155.96 248.086C155.993 248.073 156.019 248.057 156.05 248.039C156.085 248.031 156.115 248.025 156.148 248.012C156.181 247.999 156.207 247.983 156.238 247.965C156.273 247.957 156.303 247.951 156.336 247.938C156.369 247.925 156.395 247.909 156.426 247.891C156.461 247.883 156.491 247.876 156.524 247.863C156.557 247.851 156.583 247.835 156.614 247.817C156.649 247.809 156.679 247.802 156.712 247.789C156.745 247.776 156.771 247.76 156.802 247.743C156.837 247.735 156.867 247.728 156.9 247.715C156.933 247.702 156.959 247.686 156.99 247.669C157.025 247.66 157.055 247.654 157.088 247.641C157.121 247.628 157.147 247.612 157.178 247.594C157.213 247.586 157.243 247.58 157.276 247.567C157.309 247.554 157.335 247.538 157.366 247.52C157.401 247.512 157.431 247.506 157.464 247.493C157.497 247.48 157.523 247.464 157.554 247.446C157.589 247.438 157.619 247.431 157.652 247.418C157.685 247.406 157.711 247.39 157.742 247.372C157.777 247.364 157.807 247.357 157.84 247.344C157.873 247.331 157.899 247.315 157.93 247.298C157.965 247.29 157.995 247.283 158.028 247.27C158.061 247.257 158.087 247.241 158.118 247.224C158.153 247.215 158.183 247.209 158.216 247.196C158.249 247.183 158.275 247.167 158.306 247.149C158.341 247.141 158.371 247.135 158.404 247.122C158.437 247.109 158.463 247.093 158.494 247.075C158.529 247.067 158.559 247.061 158.592 247.048C158.625 247.035 158.651 247.019 158.682 247.001C158.717 246.993 158.747 246.986 158.78 246.973C158.813 246.961 158.839 246.945 158.87 246.927C158.905 246.919 158.935 246.912 158.968 246.899C159.001 246.886 159.027 246.87 159.058 246.853C159.093 246.844 159.123 246.838 159.156 246.825C159.189 246.812 159.215 246.796 159.246 246.779C159.281 246.77 159.311 246.764 159.344 246.751C159.377 246.738 159.403 246.722 159.434 246.704C159.469 246.696 159.499 246.69 159.532 246.677C159.565 246.664 159.591 246.648 159.622 246.63C159.657 246.622 159.687 246.616 159.72 246.603C159.753 246.59 159.779 246.574 159.81 246.556C159.845 246.548 159.875 246.541 159.908 246.528C159.941 246.516 159.967 246.5 159.998 246.482C160.033 246.474 160.063 246.467 160.096 246.454C160.129 246.441 160.155 246.425 160.186 246.408C160.221 246.399 160.251 246.393 160.284 246.38C160.317 246.367 160.343 246.351 160.374 246.334C160.409 246.325 160.439 246.319 160.472 246.306C160.505 246.293 160.531 246.277 160.562 246.259C160.597 246.251 160.627 246.245 160.66 246.232C160.693 246.219 160.719 246.203 160.75 246.185C160.785 246.177 160.815 246.171 160.848 246.158C160.88 246.145 160.907 246.129 160.938 246.111C160.973 246.103 161.003 246.096 161.036 246.083C161.068 246.071 161.095 246.055 161.126 246.037C161.161 246.029 161.191 246.022 161.224 246.009C161.256 245.996 161.283 245.98 161.314 245.963C161.349 245.955 161.379 245.948 161.412 245.935C161.444 245.922 161.471 245.906 161.502 245.889C161.537 245.88 161.567 245.874 161.6 245.861C161.632 245.848 161.659 245.832 161.69 245.814C161.725 245.806 161.755 245.8 161.788 245.787C161.82 245.774 161.847 245.758 161.878 245.74C161.913 245.732 161.943 245.726 161.976 245.713C162.008 245.7 162.035 245.684 162.066 245.666C162.101 245.658 162.131 245.651 162.164 245.638C162.196 245.626 162.223 245.61 162.254 245.592C162.289 245.584 162.319 245.577 162.352 245.564C163.569 245.084 163.778 242.723 162.82 240.294C161.855 237.863 160.095 236.279 158.878 236.759Z" fill="#92D5E3"/>
<path d="M267.504 221.792C267.501 221.755 267.502 221.716 267.498 221.679C267.494 221.642 267.495 221.603 267.491 221.566C267.488 221.529 267.489 221.49 267.485 221.453C267.481 221.416 267.482 221.377 267.478 221.341C267.475 221.304 267.476 221.265 267.472 221.228C267.468 221.191 267.469 221.152 267.465 221.115C267.462 221.078 267.463 221.039 267.459 221.002C267.455 220.965 267.456 220.926 267.453 220.889C267.449 220.852 267.45 220.814 267.446 220.777C267.442 220.74 267.443 220.701 267.44 220.664C267.436 220.627 267.437 220.588 267.433 220.551C267.429 220.514 267.43 220.475 267.427 220.438C267.423 220.401 267.424 220.363 267.42 220.326C267.416 220.289 267.417 220.25 267.414 220.213C267.41 220.176 267.411 220.137 267.407 220.1C267.403 220.063 267.404 220.024 267.401 219.987C267.397 219.95 267.398 219.911 267.394 219.874C267.391 219.837 267.392 219.799 267.388 219.762C267.384 219.725 267.385 219.686 267.381 219.649C267.378 219.612 267.379 219.573 267.375 219.536C267.371 219.499 267.372 219.46 267.368 219.423C267.365 219.386 267.366 219.348 267.362 219.311C267.358 219.274 267.359 219.235 267.355 219.198C267.352 219.161 267.353 219.122 267.349 219.085C267.345 219.048 267.346 219.009 267.343 218.972C267.339 218.935 267.34 218.896 267.336 218.859C267.332 218.823 267.333 218.784 267.33 218.747C267.326 218.71 267.327 218.671 267.323 218.634C267.253 216.778 266.432 215.108 264.491 213.837C264.129 213.567 263.74 213.309 263.295 213.062C262.573 212.776 261.916 212.596 261.303 212.502C259.279 212.109 257.79 212.823 256.561 214.071C254.494 216.1 253.216 219.581 251.259 221.984C245.284 229.487 234.31 231.916 225.609 227.897C220.276 225.585 216.202 230.306 216.507 234.716C216.509 234.748 216.511 234.781 216.513 234.813C216.512 234.852 216.516 234.889 216.52 234.926C216.519 234.964 216.522 235.001 216.526 235.038C216.525 235.077 216.529 235.114 216.532 235.151C216.531 235.19 216.535 235.227 216.539 235.264C216.538 235.303 216.542 235.34 216.545 235.377C216.544 235.416 216.548 235.453 216.552 235.49C216.551 235.528 216.555 235.565 216.558 235.602C216.557 235.641 216.561 235.678 216.565 235.715C216.564 235.754 216.568 235.791 216.571 235.828C216.57 235.867 216.574 235.904 216.578 235.941C216.577 235.979 216.58 236.016 216.584 236.053C216.583 236.092 216.587 236.129 216.591 236.166C216.59 236.205 216.593 236.242 216.597 236.279C216.596 236.318 216.6 236.355 216.604 236.392C216.603 236.431 216.606 236.468 216.61 236.504C216.609 236.543 216.613 236.58 216.617 236.617C216.616 236.656 216.619 236.693 216.623 236.73C216.622 236.769 216.626 236.806 216.63 236.843C216.629 236.882 216.632 236.919 216.636 236.956C216.635 236.994 216.639 237.031 216.642 237.068C216.641 237.107 216.645 237.144 216.649 237.181C216.648 237.22 216.652 237.257 216.655 237.294C216.654 237.333 216.658 237.37 216.662 237.407C216.661 237.446 216.665 237.482 216.668 237.519C216.667 237.558 216.671 237.595 216.675 237.632C216.674 237.671 216.678 237.708 216.681 237.745C216.682 237.761 216.683 237.777 216.681 237.8C216.701 240.093 217.867 242.362 220.631 243.584C226.921 246.325 233.951 247.281 240.693 246.142C247.47 244.995 253.839 241.796 258.818 237.042C261.071 234.714 264.326 231.041 266.105 227.303C267.035 225.42 267.6 223.522 267.504 221.792Z" fill="#116C7E"/>
<path d="M203.746 189.041C203.731 189.046 203.713 189.054 203.699 189.059C203.684 189.065 203.666 189.072 203.652 189.078C203.637 189.083 203.619 189.091 203.605 189.096C203.59 189.102 203.572 189.109 203.558 189.115C203.543 189.12 203.525 189.128 203.511 189.133C203.496 189.139 203.478 189.146 203.464 189.152C203.449 189.157 203.431 189.165 203.417 189.17C203.402 189.176 203.384 189.183 203.37 189.189C203.355 189.194 203.337 189.202 203.323 189.207C203.308 189.213 203.29 189.22 203.276 189.226C203.261 189.232 203.243 189.239 203.229 189.245C203.214 189.25 203.196 189.258 203.182 189.263C203.167 189.269 203.149 189.276 203.135 189.282C203.12 189.287 203.102 189.295 203.088 189.3C203.073 189.306 203.055 189.313 203.041 189.319C203.026 189.324 203.008 189.332 202.994 189.337C202.979 189.343 202.961 189.35 202.947 189.356C202.932 189.361 202.914 189.369 202.9 189.374C202.885 189.38 202.867 189.387 202.853 189.393C202.838 189.398 202.82 189.406 202.806 189.411C202.792 189.417 202.773 189.424 202.759 189.43C202.744 189.436 202.726 189.443 202.712 189.448C202.697 189.454 202.679 189.461 202.665 189.467C202.65 189.473 202.632 189.48 202.618 189.486C202.603 189.491 202.585 189.499 202.571 189.504C202.557 189.51 202.538 189.517 202.524 189.523C202.51 189.528 202.491 189.536 202.477 189.541C202.462 189.547 202.444 189.554 202.43 189.56C202.415 189.565 202.397 189.573 202.383 189.578C202.368 189.584 202.35 189.591 202.336 189.597C202.322 189.602 202.303 189.61 202.289 189.615C202.275 189.621 202.256 189.628 202.242 189.634C202.228 189.639 202.209 189.647 202.195 189.652C202.181 189.658 202.162 189.665 202.148 189.671C202.133 189.677 202.115 189.684 202.101 189.69C202.087 189.695 202.068 189.703 202.054 189.708C202.04 189.714 202.021 189.721 202.007 189.727C201.993 189.732 201.974 189.74 201.96 189.745C201.946 189.751 201.927 189.758 201.913 189.764C201.899 189.769 201.88 189.777 201.866 189.782C201.852 189.788 201.833 189.795 201.819 189.801C201.805 189.806 201.786 189.814 201.772 189.819C201.758 189.825 201.739 189.832 201.725 189.838C201.711 189.843 201.692 189.851 201.678 189.856C201.664 189.862 201.645 189.869 201.631 189.875C201.617 189.881 201.598 189.888 201.584 189.893C201.57 189.899 201.551 189.906 201.537 189.912C201.523 189.918 201.504 189.925 201.49 189.931C201.476 189.936 201.457 189.944 201.443 189.949C201.429 189.955 201.41 189.962 201.396 189.968C201.382 189.973 201.363 189.981 201.349 189.986C201.335 189.992 201.316 189.999 201.302 190.005C201.288 190.01 201.269 190.018 201.255 190.023C201.241 190.029 201.222 190.036 201.208 190.042C201.194 190.047 201.175 190.055 201.161 190.06C201.147 190.066 201.128 190.073 201.114 190.079C201.1 190.084 201.081 190.092 201.067 190.097C201.053 190.103 201.034 190.11 201.02 190.116C201.006 190.122 200.987 190.129 200.973 190.135C200.959 190.14 200.94 190.148 200.926 190.153C200.912 190.159 200.893 190.166 200.879 190.172C200.865 190.177 200.846 190.185 200.832 190.19C193.096 193.242 189.331 202.053 192.414 209.866C195.496 217.678 204.266 221.544 211.998 218.494C212.012 218.488 212.031 218.481 212.045 218.475C212.059 218.47 212.078 218.462 212.092 218.457C212.106 218.451 212.125 218.444 212.139 218.438C212.153 218.433 212.172 218.425 212.186 218.42C212.2 218.414 212.219 218.407 212.233 218.401C212.247 218.395 212.266 218.388 212.28 218.382C212.294 218.377 212.313 218.369 212.327 218.364C212.341 218.358 212.36 218.351 212.374 218.345C212.388 218.34 212.407 218.332 212.421 218.327C212.435 218.321 212.454 218.314 212.468 218.308C212.482 218.303 212.501 218.295 212.515 218.29C212.529 218.284 212.548 218.277 212.562 218.271C212.576 218.266 212.595 218.258 212.609 218.253C212.623 218.247 212.642 218.24 212.656 218.234C212.67 218.229 212.689 218.221 212.703 218.216C212.717 218.21 212.736 218.203 212.75 218.197C212.764 218.191 212.783 218.184 212.797 218.179C212.811 218.173 212.83 218.166 212.844 218.16C212.858 218.154 212.877 218.147 212.891 218.141C212.905 218.136 212.924 218.128 212.938 218.123C212.952 218.117 212.971 218.11 212.985 218.104C212.999 218.099 213.018 218.091 213.032 218.086C213.046 218.08 213.065 218.073 213.079 218.067C213.093 218.062 213.112 218.054 213.126 218.049C213.14 218.043 213.159 218.036 213.173 218.03C213.187 218.025 213.206 218.017 213.22 218.012C213.234 218.006 213.253 217.999 213.267 217.993C213.281 217.988 213.3 217.98 213.314 217.975C213.328 217.969 213.347 217.962 213.361 217.956C213.375 217.95 213.394 217.943 213.408 217.937C213.422 217.932 213.441 217.924 213.455 217.919C213.469 217.913 213.488 217.906 213.502 217.9C213.516 217.895 213.535 217.887 213.549 217.882C213.563 217.876 213.582 217.869 213.596 217.863C213.61 217.858 213.629 217.85 213.643 217.845C213.657 217.839 213.676 217.832 213.69 217.826C213.704 217.821 213.723 217.813 213.737 217.808C213.751 217.802 213.77 217.795 213.784 217.789C213.798 217.784 213.817 217.776 213.831 217.771C213.845 217.765 213.864 217.758 213.878 217.752C213.892 217.746 213.911 217.739 213.925 217.734C213.939 217.728 213.958 217.721 213.972 217.715C213.986 217.709 214.005 217.702 214.019 217.696C214.033 217.691 214.052 217.683 214.066 217.678C214.08 217.672 214.099 217.665 214.113 217.659C214.127 217.654 214.146 217.646 214.16 217.641C214.174 217.635 214.193 217.628 214.207 217.622C214.221 217.617 214.24 217.609 214.254 217.604C214.268 217.598 214.287 217.591 214.301 217.585C214.315 217.58 214.334 217.572 214.348 217.567C214.362 217.561 214.381 217.554 214.395 217.548C214.409 217.543 214.428 217.535 214.442 217.53C214.456 217.524 214.475 217.517 214.489 217.511C214.503 217.505 214.522 217.498 214.536 217.492C214.55 217.487 214.569 217.479 214.583 217.474C214.597 217.468 214.616 217.461 214.63 217.455C214.644 217.45 214.663 217.442 214.677 217.437C214.691 217.431 214.71 217.424 214.724 217.418C214.738 217.413 214.757 217.405 214.771 217.4C214.785 217.394 214.804 217.387 214.818 217.381C214.832 217.376 214.851 217.368 214.865 217.363C214.879 217.357 214.898 217.35 214.912 217.344C222.643 214.294 226.407 205.483 223.325 197.671C220.243 189.858 211.477 185.99 203.746 189.041Z" fill="#C22828"/>
<path d="M223.33 197.669C226.414 205.486 222.643 214.294 214.917 217.342C207.181 220.394 198.415 216.526 195.333 208.714C192.25 200.901 196.019 192.089 203.751 189.038C211.477 185.99 220.246 189.851 223.33 197.669Z" fill="#ED332B"/>
<path d="M219.62 198.824C221.853 204.484 219.127 210.859 213.529 213.067C207.932 215.276 201.587 212.479 199.354 206.819C197.122 201.16 199.848 194.785 205.445 192.576C211.043 190.368 217.389 193.169 219.62 198.824Z" fill="#92D5E3"/>
<path d="M214.764 200.845C215.94 203.825 214.503 207.176 211.56 208.337C208.618 209.497 205.285 208.028 204.109 205.049C202.936 202.074 204.368 198.724 207.31 197.564C210.252 196.403 213.59 197.87 214.764 200.845Z" fill="white"/>
<path d="M245.523 172.559C245.509 172.564 245.49 172.572 245.476 172.577C245.462 172.583 245.443 172.59 245.429 172.596C245.415 172.601 245.396 172.609 245.382 172.614C245.368 172.62 245.349 172.627 245.335 172.633C245.321 172.639 245.302 172.646 245.288 172.651C245.274 172.657 245.255 172.664 245.241 172.67C245.227 172.676 245.208 172.683 245.194 172.689C245.18 172.694 245.161 172.702 245.147 172.707C245.133 172.713 245.114 172.72 245.1 172.726C245.086 172.731 245.067 172.739 245.053 172.744C245.039 172.75 245.02 172.757 245.006 172.763C244.992 172.768 244.973 172.776 244.959 172.781C244.945 172.787 244.926 172.794 244.912 172.8C244.898 172.805 244.879 172.813 244.865 172.818C244.851 172.824 244.832 172.831 244.818 172.837C244.804 172.842 244.785 172.85 244.771 172.855C244.757 172.861 244.738 172.868 244.724 172.874C244.71 172.88 244.691 172.887 244.677 172.893C244.663 172.898 244.644 172.906 244.63 172.911C244.616 172.917 244.597 172.924 244.583 172.93C244.569 172.935 244.55 172.943 244.536 172.948C244.522 172.954 244.503 172.961 244.489 172.967C244.475 172.972 244.456 172.98 244.442 172.985C244.428 172.991 244.409 172.998 244.395 173.004C244.381 173.009 244.362 173.017 244.348 173.022C244.334 173.028 244.315 173.035 244.301 173.041C244.287 173.046 244.268 173.054 244.254 173.059C244.24 173.065 244.221 173.072 244.207 173.078C244.193 173.084 244.174 173.091 244.16 173.096C244.146 173.102 244.127 173.109 244.113 173.115C244.099 173.121 244.08 173.128 244.066 173.134C244.052 173.139 244.033 173.147 244.019 173.152C244.005 173.158 243.986 173.165 243.972 173.171C243.958 173.176 243.939 173.184 243.925 173.189C243.911 173.195 243.892 173.202 243.878 173.208C243.864 173.213 243.845 173.221 243.831 173.226C243.817 173.232 243.798 173.239 243.784 173.245C243.77 173.25 243.751 173.258 243.737 173.263C243.723 173.269 243.704 173.276 243.69 173.282C243.676 173.287 243.657 173.295 243.643 173.3C243.629 173.306 243.61 173.313 243.596 173.319C243.582 173.325 243.563 173.332 243.549 173.338C243.535 173.343 243.516 173.351 243.502 173.356C243.488 173.362 243.469 173.369 243.455 173.375C243.441 173.38 243.422 173.388 243.408 173.393C243.394 173.399 243.375 173.406 243.361 173.412C243.347 173.417 243.328 173.425 243.314 173.43C243.3 173.436 243.281 173.443 243.267 173.449C243.253 173.454 243.234 173.462 243.22 173.467C243.206 173.473 243.187 173.48 243.173 173.486C243.159 173.491 243.14 173.499 243.126 173.504C243.112 173.51 243.093 173.517 243.079 173.523C243.065 173.529 243.046 173.536 243.032 173.541C243.018 173.547 242.999 173.554 242.985 173.56C242.971 173.566 242.952 173.573 242.938 173.579C242.924 173.584 242.905 173.592 242.891 173.597C242.877 173.603 242.858 173.61 242.844 173.616C242.83 173.621 242.811 173.629 242.797 173.634C242.783 173.64 242.764 173.647 242.75 173.653C242.736 173.658 242.717 173.666 242.703 173.671C242.689 173.677 242.67 173.684 242.656 173.69C242.642 173.695 242.623 173.703 242.609 173.708C234.873 176.76 231.109 185.571 234.191 193.384C237.273 201.196 246.044 205.062 253.775 202.012C253.789 202.006 253.808 201.999 253.822 201.993C253.836 201.988 253.855 201.98 253.869 201.975C253.883 201.969 253.902 201.962 253.916 201.956C253.93 201.951 253.949 201.943 253.963 201.938C253.977 201.932 253.996 201.925 254.01 201.919C254.024 201.914 254.043 201.906 254.057 201.901C254.071 201.895 254.09 201.888 254.104 201.882C254.118 201.877 254.137 201.869 254.151 201.864C254.165 201.858 254.184 201.851 254.198 201.845C254.212 201.839 254.231 201.832 254.245 201.826C254.259 201.821 254.278 201.814 254.292 201.808C254.306 201.802 254.325 201.795 254.339 201.789C254.353 201.784 254.372 201.776 254.386 201.771C254.4 201.765 254.419 201.758 254.433 201.752C254.447 201.747 254.466 201.739 254.48 201.734C254.494 201.728 254.513 201.721 254.527 201.715C254.541 201.71 254.56 201.702 254.574 201.697C254.588 201.691 254.607 201.684 254.621 201.678C254.635 201.673 254.654 201.665 254.668 201.66C254.682 201.654 254.701 201.647 254.715 201.641C254.729 201.636 254.748 201.628 254.762 201.623C254.776 201.617 254.795 201.61 254.809 201.604C254.823 201.598 254.842 201.591 254.856 201.585C254.87 201.58 254.889 201.572 254.903 201.567C254.917 201.561 254.936 201.554 254.95 201.548C254.964 201.543 254.983 201.535 254.997 201.53C255.011 201.524 255.03 201.517 255.044 201.511C255.058 201.506 255.077 201.498 255.091 201.493C255.105 201.487 255.124 201.48 255.138 201.474C255.152 201.469 255.171 201.461 255.185 201.456C255.199 201.45 255.218 201.443 255.232 201.437C255.246 201.432 255.265 201.424 255.279 201.419C255.293 201.413 255.312 201.406 255.326 201.4C255.34 201.394 255.359 201.387 255.373 201.381C255.387 201.376 255.406 201.369 255.42 201.363C255.434 201.357 255.453 201.35 255.467 201.344C255.481 201.339 255.5 201.331 255.514 201.326C255.528 201.32 255.547 201.313 255.561 201.307C255.575 201.302 255.594 201.294 255.608 201.289C255.622 201.283 255.641 201.276 255.655 201.27C255.669 201.265 255.688 201.257 255.702 201.252C255.716 201.246 255.735 201.239 255.749 201.233C255.763 201.228 255.782 201.22 255.796 201.215C255.81 201.209 255.829 201.202 255.843 201.196C255.857 201.191 255.876 201.183 255.89 201.178C255.904 201.172 255.923 201.165 255.937 201.159C255.951 201.153 255.97 201.146 255.984 201.14C255.998 201.135 256.017 201.127 256.031 201.122C256.045 201.116 256.064 201.109 256.078 201.103C256.092 201.098 256.111 201.09 256.125 201.085C256.139 201.079 256.158 201.072 256.172 201.066C256.186 201.061 256.205 201.053 256.219 201.048C256.233 201.042 256.252 201.035 256.266 201.029C256.28 201.024 256.299 201.016 256.313 201.011C256.327 201.005 256.346 200.998 256.36 200.992C256.374 200.987 256.393 200.979 256.407 200.974C256.421 200.968 256.44 200.961 256.454 200.955C256.468 200.949 256.487 200.942 256.501 200.936C256.515 200.931 256.534 200.924 256.548 200.918C256.562 200.912 256.581 200.905 256.595 200.899C256.609 200.894 256.628 200.886 256.642 200.881C256.656 200.875 256.675 200.868 256.689 200.862C264.42 197.812 268.185 189.001 265.102 181.189C262.02 173.376 253.254 169.509 245.523 172.559Z" fill="#C22828"/>
<path d="M265.103 181.189C268.187 189.006 264.416 197.814 256.689 200.862C248.953 203.914 240.187 200.046 237.105 192.234C234.023 184.421 237.792 175.609 245.523 172.558C253.255 169.508 262.019 173.371 265.103 181.189Z" fill="#ED332B"/>
<path d="M261.398 182.342C263.631 188.002 260.904 194.377 255.307 196.586C249.709 198.794 243.365 195.997 241.132 190.338C238.899 184.678 241.625 178.303 247.223 176.095C252.821 173.886 259.167 176.687 261.398 182.342Z" fill="#92D5E3"/>
<path d="M256.541 184.363C257.717 187.343 256.28 190.694 253.338 191.855C250.396 193.016 247.062 191.546 245.887 188.567C244.713 185.592 246.146 182.242 249.088 181.082C252.03 179.921 255.368 181.388 256.541 184.363Z" fill="white"/>
<path d="M263.331 213.048C256.083 210.163 254.745 217.731 251.296 221.97C245.321 229.472 234.346 231.902 225.646 227.882C217.714 224.449 212.55 236.569 220.476 240.07C226.766 242.811 233.797 243.767 240.539 242.628C247.316 241.481 253.685 238.282 258.664 233.528C263.352 228.685 272.418 218.003 263.331 213.048Z" fill="#ED332B"/>
<path d="M223.99 236.13C223.455 235.93 222.905 235.707 222.375 235.477L223.666 232.431C224.146 232.642 224.636 232.839 225.114 233.018L223.99 236.13Z" fill="white"/>
<path d="M244.767 236.342C243.664 236.738 242.525 237.073 241.38 237.337L240.624 234.099C241.639 233.863 242.657 233.566 243.636 233.213L244.767 236.342ZM246.412 235.693L245.103 232.634C246.06 232.224 247.006 231.746 247.909 231.225L249.567 234.107C248.55 234.696 247.49 235.229 246.412 235.693ZM239.649 237.685C238.492 237.878 237.309 238.004 236.136 238.061L235.957 234.743C237.002 234.693 238.055 234.58 239.085 234.41L239.649 237.685ZM251.068 233.175L249.242 230.392C250.113 229.817 250.957 229.177 251.755 228.5L253.889 231.046C252.993 231.817 252.047 232.531 251.068 233.175ZM234.368 238.094C233.194 238.079 232.01 237.997 230.842 237.843L231.24 234.544C232.281 234.677 233.338 234.755 234.38 234.766L234.368 238.094ZM255.201 229.87L252.922 227.452C253.675 226.732 254.394 225.954 255.064 225.146L257.608 227.283C256.857 228.189 256.05 229.062 255.201 229.87ZM258.691 225.884L256.032 223.896C256.65 223.054 257.227 222.161 257.745 221.243L260.609 222.914C260.028 223.945 259.378 224.943 258.691 225.884ZM229.095 237.56C227.945 237.344 226.788 237.053 225.665 236.7L226.617 233.523C227.625 233.834 228.658 234.097 229.685 234.29L229.095 237.56Z" fill="white"/>
</g>
</g>
<defs>
<clipPath id="clip0_1423_31717">
<rect width="256" height="256" fill="white"/>
</clipPath>
<clipPath id="clip1_1423_31717">
<path d="M112.423 235.511C97.8299 198.521 115.986 156.705 152.976 142.112L218.092 116.423C255.082 101.83 296.899 119.986 311.491 156.976L337.18 222.092C351.773 259.082 333.617 300.899 296.627 315.491L231.511 341.18C194.521 355.773 152.705 337.617 138.112 300.627L112.423 235.511Z" fill="white"/>
</clipPath>
</defs>
</svg>
